<svg xmlns="http://www.w3.org/2000/svg" xmlns:xlink="http://www.w3.org/1999/xlink" width="500" zoomAndPan="magnify" viewBox="0 0 375 37.5" height="50" preserveAspectRatio="xMidYMid meet" version="1.0"><defs><g/><clipPath id="id1"><path d="M 149 15 L 167 15 L 167 37.007812 L 149 37.007812 Z M 149 15 " clip-rule="nonzero"/></clipPath><clipPath id="id2"><path d="M 334 15 L 353 15 L 353 37.007812 L 334 37.007812 Z M 334 15 " clip-rule="nonzero"/></clipPath></defs><g fill="#50db14" fill-opacity="0.302"><g transform="translate(7.372056, 31.555086)"><g><path d="M 2.078125 -20.71875 L 11.09375 -20.71875 C 13.738281 -20.71875 15.789062 -20.085938 17.25 -18.828125 C 18.707031 -17.578125 19.4375 -15.800781 19.4375 -13.5 C 19.4375 -11.070312 18.707031 -9.1875 17.25 -7.84375 C 15.789062 -6.5 13.738281 -5.828125 11.09375 -5.828125 L 7.34375 -5.828125 L 7.34375 0 L 2.078125 0 Z M 7.34375 -16.578125 L 7.34375 -9.96875 L 10.828125 -9.96875 C 11.992188 -9.96875 12.890625 -10.253906 13.515625 -10.828125 C 14.148438 -11.398438 14.46875 -12.226562 14.46875 -13.3125 C 14.46875 -14.382812 14.148438 -15.195312 13.515625 -15.75 C 12.890625 -16.300781 11.992188 -16.578125 10.828125 -16.578125 Z M 7.34375 -16.578125 "/></g></g></g><g fill="#50db14" fill-opacity="0.302"><g transform="translate(27.495816, 31.555086)"><g><path d="M 17.90625 -16.484375 L 11.65625 -16.484375 L 11.65625 0 L 6.390625 0 L 6.390625 -16.484375 L 0.203125 -16.484375 L 0.203125 -20.75 L 17.90625 -20.75 Z M 17.90625 -16.484375 "/></g></g></g><g fill="#50db14" fill-opacity="0.302"><g transform="translate(45.577608, 31.555086)"><g><path d="M 1.796875 -4.015625 C 2.253906 -4.472656 2.847656 -4.703125 3.578125 -4.703125 C 4.304688 -4.703125 4.898438 -4.472656 5.359375 -4.015625 C 5.828125 -3.566406 6.0625 -2.976562 6.0625 -2.25 C 6.0625 -1.519531 5.828125 -0.921875 5.359375 -0.453125 C 4.898438 0.00390625 4.304688 0.234375 3.578125 0.234375 C 2.847656 0.234375 2.253906 0.00390625 1.796875 -0.453125 C 1.347656 -0.921875 1.125 -1.519531 1.125 -2.25 C 1.125 -2.976562 1.347656 -3.566406 1.796875 -4.015625 Z M 1.796875 -4.015625 "/></g></g></g><g fill="#50db14" fill-opacity="0.302"><g transform="translate(52.768898, 31.555086)"><g/></g></g><g fill="#50db14" fill-opacity="0.302"><g transform="translate(59.634653, 31.555086)"><g><path d="M 15.828125 -3.8125 L 6.78125 -3.8125 L 5.265625 0 L -0.140625 0 L 8.796875 -20.71875 L 14.203125 -20.71875 L 22.9375 0 L 17.3125 0 Z M 14.296875 -7.8125 L 11.328125 -15.484375 L 8.3125 -7.8125 Z M 14.296875 -7.8125 "/></g></g></g><g fill="#50db14" fill-opacity="0.302"><g transform="translate(82.421853, 31.555086)"><g><path d="M 12.078125 -16.125 C 14.328125 -16.125 16.132812 -15.367188 17.5 -13.859375 C 18.875 -12.347656 19.5625 -10.363281 19.5625 -7.90625 C 19.5625 -5.476562 18.890625 -3.523438 17.546875 -2.046875 C 16.203125 -0.566406 14.414062 0.171875 12.1875 0.171875 C 10.101562 0.171875 8.476562 -0.59375 7.3125 -2.125 L 7.3125 0 L 2.1875 0 L 2.1875 -21.953125 L 7.3125 -21.953125 L 7.3125 -13.84375 C 8.488281 -15.363281 10.078125 -16.125 12.078125 -16.125 Z M 10.828125 -3.875 C 11.890625 -3.875 12.75 -4.265625 13.40625 -5.046875 C 14.070312 -5.828125 14.40625 -6.828125 14.40625 -8.046875 C 14.40625 -9.273438 14.070312 -10.269531 13.40625 -11.03125 C 12.75 -11.800781 11.890625 -12.1875 10.828125 -12.1875 C 9.804688 -12.1875 8.960938 -11.800781 8.296875 -11.03125 C 7.640625 -10.269531 7.3125 -9.273438 7.3125 -8.046875 C 7.3125 -6.804688 7.632812 -5.800781 8.28125 -5.03125 C 8.9375 -4.257812 9.785156 -3.875 10.828125 -3.875 Z M 10.828125 -3.875 "/></g></g></g><g fill="#50db14" fill-opacity="0.302"><g transform="translate(102.693581, 31.555086)"><g><path d="M 2.671875 -22.46875 C 3.179688 -22.976562 3.828125 -23.234375 4.609375 -23.234375 C 5.398438 -23.234375 6.046875 -22.976562 6.546875 -22.46875 C 7.054688 -21.96875 7.3125 -21.320312 7.3125 -20.53125 C 7.3125 -19.75 7.054688 -19.097656 6.546875 -18.578125 C 6.046875 -18.066406 5.398438 -17.8125 4.609375 -17.8125 C 3.828125 -17.8125 3.179688 -18.066406 2.671875 -18.578125 C 2.171875 -19.097656 1.921875 -19.75 1.921875 -20.53125 C 1.921875 -21.320312 2.171875 -21.96875 2.671875 -22.46875 Z M 7.125 0 L 2.046875 0 L 2.046875 -15.953125 L 7.125 -15.953125 Z M 7.125 0 "/></g></g></g><g fill="#50db14" fill-opacity="0.302"><g transform="translate(111.89724, 31.555086)"><g><path d="M 12.484375 -16.1875 C 14.242188 -16.1875 15.65625 -15.628906 16.71875 -14.515625 C 17.78125 -13.398438 18.3125 -11.914062 18.3125 -10.0625 L 18.3125 0 L 13.234375 0 L 13.234375 -8.640625 C 13.234375 -9.566406 12.976562 -10.300781 12.46875 -10.84375 C 11.96875 -11.382812 11.285156 -11.65625 10.421875 -11.65625 C 9.515625 -11.65625 8.769531 -11.359375 8.1875 -10.765625 C 7.601562 -10.179688 7.257812 -9.40625 7.15625 -8.4375 L 7.15625 0 L 2.046875 0 L 2.046875 -15.953125 L 7.15625 -15.953125 L 7.15625 -13.34375 C 8.28125 -15.195312 10.054688 -16.144531 12.484375 -16.1875 Z M 12.484375 -16.1875 "/></g></g></g><g fill="#50db14" fill-opacity="0.302"><g transform="translate(131.813844, 31.555086)"><g><path d="M 9.203125 -16.1875 C 11.390625 -16.1875 13.085938 -15.675781 14.296875 -14.65625 C 15.515625 -13.644531 16.132812 -12.234375 16.15625 -10.421875 L 16.15625 0 L 11.15625 0 L 11.15625 -1.828125 C 10.113281 -0.453125 8.488281 0.234375 6.28125 0.234375 C 4.601562 0.234375 3.269531 -0.226562 2.28125 -1.15625 C 1.289062 -2.082031 0.796875 -3.285156 0.796875 -4.765625 C 0.796875 -6.285156 1.320312 -7.460938 2.375 -8.296875 C 3.4375 -9.140625 4.953125 -9.570312 6.921875 -9.59375 L 11.125 -9.59375 L 11.125 -9.828125 C 11.125 -10.617188 10.863281 -11.234375 10.34375 -11.671875 C 9.820312 -12.117188 9.046875 -12.34375 8.015625 -12.34375 C 6.578125 -12.34375 4.988281 -11.898438 3.25 -11.015625 L 1.8125 -14.375 C 4.394531 -15.582031 6.859375 -16.1875 9.203125 -16.1875 Z M 7.84375 -3.21875 C 8.65625 -3.21875 9.363281 -3.421875 9.96875 -3.828125 C 10.582031 -4.234375 10.96875 -4.765625 11.125 -5.421875 L 11.125 -6.84375 L 7.90625 -6.84375 C 6.363281 -6.84375 5.59375 -6.269531 5.59375 -5.125 C 5.59375 -4.53125 5.789062 -4.0625 6.1875 -3.71875 C 6.582031 -3.382812 7.132812 -3.21875 7.84375 -3.21875 Z M 7.84375 -3.21875 "/></g></g></g><g clip-path="url(#id1)"><g fill="#50db14" fill-opacity="0.302"><g transform="translate(149.5701, 31.555086)"><g><path d="M 17.375 -15.953125 L 10.46875 1.65625 C 9.289062 4.539062 7.242188 5.984375 4.328125 5.984375 C 2.628906 5.984375 1.078125 5.4375 -0.328125 4.34375 L 1.8125 0.859375 C 2.519531 1.429688 3.21875 1.71875 3.90625 1.71875 C 4.8125 1.71875 5.472656 1.289062 5.890625 0.4375 L 6.28125 -0.359375 L -0.359375 -15.953125 L 4.90625 -15.953125 L 8.8125 -5.359375 L 12.28125 -15.953125 Z M 17.375 -15.953125 "/></g></g></g></g><g fill="#50db14" fill-opacity="0.302"><g transform="translate(166.734487, 31.555086)"><g><path d="M 9.203125 -16.1875 C 11.390625 -16.1875 13.085938 -15.675781 14.296875 -14.65625 C 15.515625 -13.644531 16.132812 -12.234375 16.15625 -10.421875 L 16.15625 0 L 11.15625 0 L 11.15625 -1.828125 C 10.113281 -0.453125 8.488281 0.234375 6.28125 0.234375 C 4.601562 0.234375 3.269531 -0.226562 2.28125 -1.15625 C 1.289062 -2.082031 0.796875 -3.285156 0.796875 -4.765625 C 0.796875 -6.285156 1.320312 -7.460938 2.375 -8.296875 C 3.4375 -9.140625 4.953125 -9.570312 6.921875 -9.59375 L 11.125 -9.59375 L 11.125 -9.828125 C 11.125 -10.617188 10.863281 -11.234375 10.34375 -11.671875 C 9.820312 -12.117188 9.046875 -12.34375 8.015625 -12.34375 C 6.578125 -12.34375 4.988281 -11.898438 3.25 -11.015625 L 1.8125 -14.375 C 4.394531 -15.582031 6.859375 -16.1875 9.203125 -16.1875 Z M 7.84375 -3.21875 C 8.65625 -3.21875 9.363281 -3.421875 9.96875 -3.828125 C 10.582031 -4.234375 10.96875 -4.765625 11.125 -5.421875 L 11.125 -6.84375 L 7.90625 -6.84375 C 6.363281 -6.84375 5.59375 -6.269531 5.59375 -5.125 C 5.59375 -4.53125 5.789062 -4.0625 6.1875 -3.71875 C 6.582031 -3.382812 7.132812 -3.21875 7.84375 -3.21875 Z M 7.84375 -3.21875 "/></g></g></g><g fill="#50db14" fill-opacity="0.302"><g transform="translate(184.490744, 31.555086)"><g/></g></g><g fill="#50db14" fill-opacity="0.302"><g transform="translate(191.356498, 31.555086)"><g><path d="M 24.828125 0 L 20.1875 0 L 20.15625 -13.46875 L 15.1875 -2.078125 L 11.75 -2.078125 L 6.78125 -13.46875 L 6.78125 0 L 2.078125 0 L 2.078125 -20.75 L 7.84375 -20.75 L 13.46875 -8.40625 L 19.09375 -20.75 L 24.828125 -20.75 Z M 24.828125 0 "/></g></g></g><g fill="#50db14" fill-opacity="0.302"><g transform="translate(218.286824, 31.555086)"><g><path d="M 17.578125 -15.953125 L 17.578125 0 L 12.453125 0 L 12.453125 -2.640625 C 11.367188 -0.742188 9.644531 0.203125 7.28125 0.203125 C 5.539062 0.203125 4.148438 -0.347656 3.109375 -1.453125 C 2.078125 -2.554688 1.5625 -4.035156 1.5625 -5.890625 L 1.5625 -15.953125 L 6.6875 -15.953125 L 6.6875 -7.34375 C 6.6875 -6.394531 6.925781 -5.648438 7.40625 -5.109375 C 7.894531 -4.566406 8.546875 -4.296875 9.359375 -4.296875 C 10.316406 -4.316406 11.070312 -4.675781 11.625 -5.375 C 12.175781 -6.070312 12.453125 -6.972656 12.453125 -8.078125 L 12.453125 -15.953125 Z M 17.578125 -15.953125 "/></g></g></g><g fill="#50db14" fill-opacity="0.302"><g transform="translate(237.907493, 31.555086)"><g><path d="M 18.109375 -21.953125 L 18.109375 0 L 12.984375 0 L 12.984375 -2.09375 C 11.828125 -0.5625 10.234375 0.203125 8.203125 0.203125 C 5.953125 0.203125 4.144531 -0.550781 2.78125 -2.0625 C 1.414062 -3.582031 0.734375 -5.578125 0.734375 -8.046875 C 0.734375 -10.492188 1.40625 -12.457031 2.75 -13.9375 C 4.09375 -15.414062 5.867188 -16.15625 8.078125 -16.15625 C 10.191406 -16.15625 11.828125 -15.382812 12.984375 -13.84375 L 12.984375 -21.953125 Z M 6.859375 -4.90625 C 7.515625 -4.144531 8.375 -3.765625 9.4375 -3.765625 C 10.5 -3.765625 11.351562 -4.144531 12 -4.90625 C 12.65625 -5.675781 12.984375 -6.6875 12.984375 -7.9375 C 12.984375 -9.15625 12.65625 -10.148438 12 -10.921875 C 11.351562 -11.691406 10.5 -12.078125 9.4375 -12.078125 C 8.375 -12.078125 7.515625 -11.695312 6.859375 -10.9375 C 6.210938 -10.175781 5.878906 -9.175781 5.859375 -7.9375 C 5.878906 -6.6875 6.210938 -5.675781 6.859375 -4.90625 Z M 6.859375 -4.90625 "/></g></g></g><g fill="#50db14" fill-opacity="0.302"><g transform="translate(258.208799, 31.555086)"><g><path d="M 9.203125 -16.1875 C 11.390625 -16.1875 13.085938 -15.675781 14.296875 -14.65625 C 15.515625 -13.644531 16.132812 -12.234375 16.15625 -10.421875 L 16.15625 0 L 11.15625 0 L 11.15625 -1.828125 C 10.113281 -0.453125 8.488281 0.234375 6.28125 0.234375 C 4.601562 0.234375 3.269531 -0.226562 2.28125 -1.15625 C 1.289062 -2.082031 0.796875 -3.285156 0.796875 -4.765625 C 0.796875 -6.285156 1.320312 -7.460938 2.375 -8.296875 C 3.4375 -9.140625 4.953125 -9.570312 6.921875 -9.59375 L 11.125 -9.59375 L 11.125 -9.828125 C 11.125 -10.617188 10.863281 -11.234375 10.34375 -11.671875 C 9.820312 -12.117188 9.046875 -12.34375 8.015625 -12.34375 C 6.578125 -12.34375 4.988281 -11.898438 3.25 -11.015625 L 1.8125 -14.375 C 4.394531 -15.582031 6.859375 -16.1875 9.203125 -16.1875 Z M 7.84375 -3.21875 C 8.65625 -3.21875 9.363281 -3.421875 9.96875 -3.828125 C 10.582031 -4.234375 10.96875 -4.765625 11.125 -5.421875 L 11.125 -6.84375 L 7.90625 -6.84375 C 6.363281 -6.84375 5.59375 -6.269531 5.59375 -5.125 C 5.59375 -4.53125 5.789062 -4.0625 6.1875 -3.71875 C 6.582031 -3.382812 7.132812 -3.21875 7.84375 -3.21875 Z M 7.84375 -3.21875 "/></g></g></g><g fill="#50db14" fill-opacity="0.302"><g transform="translate(275.965045, 31.555086)"><g/></g></g><g fill="#50db14" fill-opacity="0.302"><g transform="translate(282.830799, 31.555086)"><g><path d="M 15.5625 0 L 10.09375 -8.140625 L 7.34375 -5.09375 L 7.34375 0 L 2.078125 0 L 2.078125 -20.71875 L 7.34375 -20.71875 L 7.34375 -11.75 L 15.265625 -20.71875 L 21.359375 -20.71875 L 13.671875 -12.140625 L 21.875 0 Z M 15.5625 0 "/></g></g></g><g fill="#50db14" fill-opacity="0.302"><g transform="translate(304.937328, 31.555086)"><g><path d="M 9.203125 -16.1875 C 11.390625 -16.1875 13.085938 -15.675781 14.296875 -14.65625 C 15.515625 -13.644531 16.132812 -12.234375 16.15625 -10.421875 L 16.15625 0 L 11.15625 0 L 11.15625 -1.828125 C 10.113281 -0.453125 8.488281 0.234375 6.28125 0.234375 C 4.601562 0.234375 3.269531 -0.226562 2.28125 -1.15625 C 1.289062 -2.082031 0.796875 -3.285156 0.796875 -4.765625 C 0.796875 -6.285156 1.320312 -7.460938 2.375 -8.296875 C 3.4375 -9.140625 4.953125 -9.570312 6.921875 -9.59375 L 11.125 -9.59375 L 11.125 -9.828125 C 11.125 -10.617188 10.863281 -11.234375 10.34375 -11.671875 C 9.820312 -12.117188 9.046875 -12.34375 8.015625 -12.34375 C 6.578125 -12.34375 4.988281 -11.898438 3.25 -11.015625 L 1.8125 -14.375 C 4.394531 -15.582031 6.859375 -16.1875 9.203125 -16.1875 Z M 7.84375 -3.21875 C 8.65625 -3.21875 9.363281 -3.421875 9.96875 -3.828125 C 10.582031 -4.234375 10.96875 -4.765625 11.125 -5.421875 L 11.125 -6.84375 L 7.90625 -6.84375 C 6.363281 -6.84375 5.59375 -6.269531 5.59375 -5.125 C 5.59375 -4.53125 5.789062 -4.0625 6.1875 -3.71875 C 6.582031 -3.382812 7.132812 -3.21875 7.84375 -3.21875 Z M 7.84375 -3.21875 "/></g></g></g><g fill="#50db14" fill-opacity="0.302"><g transform="translate(322.693574, 31.555086)"><g><path d="M 7.15625 -15.953125 L 7.15625 -13.265625 C 8.28125 -15.171875 10.007812 -16.144531 12.34375 -16.1875 L 12.34375 -11.578125 C 10.882812 -11.710938 9.691406 -11.46875 8.765625 -10.84375 C 7.835938 -10.21875 7.300781 -9.335938 7.15625 -8.203125 L 7.15625 0 L 2.046875 0 L 2.046875 -15.953125 Z M 7.15625 -15.953125 "/></g></g></g><g clip-path="url(#id2)"><g fill="#50db14" fill-opacity="0.302"><g transform="translate(335.330109, 31.555086)"><g><path d="M 17.375 -15.953125 L 10.46875 1.65625 C 9.289062 4.539062 7.242188 5.984375 4.328125 5.984375 C 2.628906 5.984375 1.078125 5.4375 -0.328125 4.34375 L 1.8125 0.859375 C 2.519531 1.429688 3.21875 1.71875 3.90625 1.71875 C 4.8125 1.71875 5.472656 1.289062 5.890625 0.4375 L 6.28125 -0.359375 L -0.359375 -15.953125 L 4.90625 -15.953125 L 8.8125 -5.359375 L 12.28125 -15.953125 Z M 17.375 -15.953125 "/></g></g></g></g><g fill="#50db14" fill-opacity="0.302"><g transform="translate(352.494484, 31.555086)"><g><path d="M 9.203125 -16.1875 C 11.390625 -16.1875 13.085938 -15.675781 14.296875 -14.65625 C 15.515625 -13.644531 16.132812 -12.234375 16.15625 -10.421875 L 16.15625 0 L 11.15625 0 L 11.15625 -1.828125 C 10.113281 -0.453125 8.488281 0.234375 6.28125 0.234375 C 4.601562 0.234375 3.269531 -0.226562 2.28125 -1.15625 C 1.289062 -2.082031 0.796875 -3.285156 0.796875 -4.765625 C 0.796875 -6.285156 1.320312 -7.460938 2.375 -8.296875 C 3.4375 -9.140625 4.953125 -9.570312 6.921875 -9.59375 L 11.125 -9.59375 L 11.125 -9.828125 C 11.125 -10.617188 10.863281 -11.234375 10.34375 -11.671875 C 9.820312 -12.117188 9.046875 -12.34375 8.015625 -12.34375 C 6.578125 -12.34375 4.988281 -11.898438 3.25 -11.015625 L 1.8125 -14.375 C 4.394531 -15.582031 6.859375 -16.1875 9.203125 -16.1875 Z M 7.84375 -3.21875 C 8.65625 -3.21875 9.363281 -3.421875 9.96875 -3.828125 C 10.582031 -4.234375 10.96875 -4.765625 11.125 -5.421875 L 11.125 -6.84375 L 7.90625 -6.84375 C 6.363281 -6.84375 5.59375 -6.269531 5.59375 -5.125 C 5.59375 -4.53125 5.789062 -4.0625 6.1875 -3.71875 C 6.582031 -3.382812 7.132812 -3.21875 7.84375 -3.21875 Z M 7.84375 -3.21875 "/></g></g></g><g fill="#50db14" fill-opacity="1"><g transform="translate(6.063682, 30.246713)"><g><path d="M 2.078125 -20.71875 L 11.09375 -20.71875 C 13.738281 -20.71875 15.789062 -20.085938 17.25 -18.828125 C 18.707031 -17.578125 19.4375 -15.800781 19.4375 -13.5 C 19.4375 -11.070312 18.707031 -9.1875 17.25 -7.84375 C 15.789062 -6.5 13.738281 -5.828125 11.09375 -5.828125 L 7.34375 -5.828125 L 7.34375 0 L 2.078125 0 Z M 7.34375 -16.578125 L 7.34375 -9.96875 L 10.828125 -9.96875 C 11.992188 -9.96875 12.890625 -10.253906 13.515625 -10.828125 C 14.148438 -11.398438 14.46875 -12.226562 14.46875 -13.3125 C 14.46875 -14.382812 14.148438 -15.195312 13.515625 -15.75 C 12.890625 -16.300781 11.992188 -16.578125 10.828125 -16.578125 Z M 7.34375 -16.578125 "/></g></g></g><g fill="#50db14" fill-opacity="1"><g transform="translate(26.187443, 30.246713)"><g><path d="M 17.90625 -16.484375 L 11.65625 -16.484375 L 11.65625 0 L 6.390625 0 L 6.390625 -16.484375 L 0.203125 -16.484375 L 0.203125 -20.75 L 17.90625 -20.75 Z M 17.90625 -16.484375 "/></g></g></g><g fill="#50db14" fill-opacity="1"><g transform="translate(44.269235, 30.246713)"><g><path d="M 1.796875 -4.015625 C 2.253906 -4.472656 2.847656 -4.703125 3.578125 -4.703125 C 4.304688 -4.703125 4.898438 -4.472656 5.359375 -4.015625 C 5.828125 -3.566406 6.0625 -2.976562 6.0625 -2.25 C 6.0625 -1.519531 5.828125 -0.921875 5.359375 -0.453125 C 4.898438 0.00390625 4.304688 0.234375 3.578125 0.234375 C 2.847656 0.234375 2.253906 0.00390625 1.796875 -0.453125 C 1.347656 -0.921875 1.125 -1.519531 1.125 -2.25 C 1.125 -2.976562 1.347656 -3.566406 1.796875 -4.015625 Z M 1.796875 -4.015625 "/></g></g></g><g fill="#50db14" fill-opacity="1"><g transform="translate(51.460525, 30.246713)"><g/></g></g><g fill="#50db14" fill-opacity="1"><g transform="translate(58.326279, 30.246713)"><g><path d="M 15.828125 -3.8125 L 6.78125 -3.8125 L 5.265625 0 L -0.140625 0 L 8.796875 -20.71875 L 14.203125 -20.71875 L 22.9375 0 L 17.3125 0 Z M 14.296875 -7.8125 L 11.328125 -15.484375 L 8.3125 -7.8125 Z M 14.296875 -7.8125 "/></g></g></g><g fill="#50db14" fill-opacity="1"><g transform="translate(81.113479, 30.246713)"><g><path d="M 12.078125 -16.125 C 14.328125 -16.125 16.132812 -15.367188 17.5 -13.859375 C 18.875 -12.347656 19.5625 -10.363281 19.5625 -7.90625 C 19.5625 -5.476562 18.890625 -3.523438 17.546875 -2.046875 C 16.203125 -0.566406 14.414062 0.171875 12.1875 0.171875 C 10.101562 0.171875 8.476562 -0.59375 7.3125 -2.125 L 7.3125 0 L 2.1875 0 L 2.1875 -21.953125 L 7.3125 -21.953125 L 7.3125 -13.84375 C 8.488281 -15.363281 10.078125 -16.125 12.078125 -16.125 Z M 10.828125 -3.875 C 11.890625 -3.875 12.75 -4.265625 13.40625 -5.046875 C 14.070312 -5.828125 14.40625 -6.828125 14.40625 -8.046875 C 14.40625 -9.273438 14.070312 -10.269531 13.40625 -11.03125 C 12.75 -11.800781 11.890625 -12.1875 10.828125 -12.1875 C 9.804688 -12.1875 8.960938 -11.800781 8.296875 -11.03125 C 7.640625 -10.269531 7.3125 -9.273438 7.3125 -8.046875 C 7.3125 -6.804688 7.632812 -5.800781 8.28125 -5.03125 C 8.9375 -4.257812 9.785156 -3.875 10.828125 -3.875 Z M 10.828125 -3.875 "/></g></g></g><g fill="#50db14" fill-opacity="1"><g transform="translate(101.385208, 30.246713)"><g><path d="M 2.671875 -22.46875 C 3.179688 -22.976562 3.828125 -23.234375 4.609375 -23.234375 C 5.398438 -23.234375 6.046875 -22.976562 6.546875 -22.46875 C 7.054688 -21.96875 7.3125 -21.320312 7.3125 -20.53125 C 7.3125 -19.75 7.054688 -19.097656 6.546875 -18.578125 C 6.046875 -18.066406 5.398438 -17.8125 4.609375 -17.8125 C 3.828125 -17.8125 3.179688 -18.066406 2.671875 -18.578125 C 2.171875 -19.097656 1.921875 -19.75 1.921875 -20.53125 C 1.921875 -21.320312 2.171875 -21.96875 2.671875 -22.46875 Z M 7.125 0 L 2.046875 0 L 2.046875 -15.953125 L 7.125 -15.953125 Z M 7.125 0 "/></g></g></g><g fill="#50db14" fill-opacity="1"><g transform="translate(110.588866, 30.246713)"><g><path d="M 12.484375 -16.1875 C 14.242188 -16.1875 15.65625 -15.628906 16.71875 -14.515625 C 17.78125 -13.398438 18.3125 -11.914062 18.3125 -10.0625 L 18.3125 0 L 13.234375 0 L 13.234375 -8.640625 C 13.234375 -9.566406 12.976562 -10.300781 12.46875 -10.84375 C 11.96875 -11.382812 11.285156 -11.65625 10.421875 -11.65625 C 9.515625 -11.65625 8.769531 -11.359375 8.1875 -10.765625 C 7.601562 -10.179688 7.257812 -9.40625 7.15625 -8.4375 L 7.15625 0 L 2.046875 0 L 2.046875 -15.953125 L 7.15625 -15.953125 L 7.15625 -13.34375 C 8.28125 -15.195312 10.054688 -16.144531 12.484375 -16.1875 Z M 12.484375 -16.1875 "/></g></g></g><g fill="#50db14" fill-opacity="1"><g transform="translate(130.50547, 30.246713)"><g><path d="M 9.203125 -16.1875 C 11.390625 -16.1875 13.085938 -15.675781 14.296875 -14.65625 C 15.515625 -13.644531 16.132812 -12.234375 16.15625 -10.421875 L 16.15625 0 L 11.15625 0 L 11.15625 -1.828125 C 10.113281 -0.453125 8.488281 0.234375 6.28125 0.234375 C 4.601562 0.234375 3.269531 -0.226562 2.28125 -1.15625 C 1.289062 -2.082031 0.796875 -3.285156 0.796875 -4.765625 C 0.796875 -6.285156 1.320312 -7.460938 2.375 -8.296875 C 3.4375 -9.140625 4.953125 -9.570312 6.921875 -9.59375 L 11.125 -9.59375 L 11.125 -9.828125 C 11.125 -10.617188 10.863281 -11.234375 10.34375 -11.671875 C 9.820312 -12.117188 9.046875 -12.34375 8.015625 -12.34375 C 6.578125 -12.34375 4.988281 -11.898438 3.25 -11.015625 L 1.8125 -14.375 C 4.394531 -15.582031 6.859375 -16.1875 9.203125 -16.1875 Z M 7.84375 -3.21875 C 8.65625 -3.21875 9.363281 -3.421875 9.96875 -3.828125 C 10.582031 -4.234375 10.96875 -4.765625 11.125 -5.421875 L 11.125 -6.84375 L 7.90625 -6.84375 C 6.363281 -6.84375 5.59375 -6.269531 5.59375 -5.125 C 5.59375 -4.53125 5.789062 -4.0625 6.1875 -3.71875 C 6.582031 -3.382812 7.132812 -3.21875 7.84375 -3.21875 Z M 7.84375 -3.21875 "/></g></g></g><g fill="#50db14" fill-opacity="1"><g transform="translate(148.261727, 30.246713)"><g><path d="M 17.375 -15.953125 L 10.46875 1.65625 C 9.289062 4.539062 7.242188 5.984375 4.328125 5.984375 C 2.628906 5.984375 1.078125 5.4375 -0.328125 4.34375 L 1.8125 0.859375 C 2.519531 1.429688 3.21875 1.71875 3.90625 1.71875 C 4.8125 1.71875 5.472656 1.289062 5.890625 0.4375 L 6.28125 -0.359375 L -0.359375 -15.953125 L 4.90625 -15.953125 L 8.8125 -5.359375 L 12.28125 -15.953125 Z M 17.375 -15.953125 "/></g></g></g><g fill="#50db14" fill-opacity="1"><g transform="translate(165.426113, 30.246713)"><g><path d="M 9.203125 -16.1875 C 11.390625 -16.1875 13.085938 -15.675781 14.296875 -14.65625 C 15.515625 -13.644531 16.132812 -12.234375 16.15625 -10.421875 L 16.15625 0 L 11.15625 0 L 11.15625 -1.828125 C 10.113281 -0.453125 8.488281 0.234375 6.28125 0.234375 C 4.601562 0.234375 3.269531 -0.226562 2.28125 -1.15625 C 1.289062 -2.082031 0.796875 -3.285156 0.796875 -4.765625 C 0.796875 -6.285156 1.320312 -7.460938 2.375 -8.296875 C 3.4375 -9.140625 4.953125 -9.570312 6.921875 -9.59375 L 11.125 -9.59375 L 11.125 -9.828125 C 11.125 -10.617188 10.863281 -11.234375 10.34375 -11.671875 C 9.820312 -12.117188 9.046875 -12.34375 8.015625 -12.34375 C 6.578125 -12.34375 4.988281 -11.898438 3.25 -11.015625 L 1.8125 -14.375 C 4.394531 -15.582031 6.859375 -16.1875 9.203125 -16.1875 Z M 7.84375 -3.21875 C 8.65625 -3.21875 9.363281 -3.421875 9.96875 -3.828125 C 10.582031 -4.234375 10.96875 -4.765625 11.125 -5.421875 L 11.125 -6.84375 L 7.90625 -6.84375 C 6.363281 -6.84375 5.59375 -6.269531 5.59375 -5.125 C 5.59375 -4.53125 5.789062 -4.0625 6.1875 -3.71875 C 6.582031 -3.382812 7.132812 -3.21875 7.84375 -3.21875 Z M 7.84375 -3.21875 "/></g></g></g><g fill="#50db14" fill-opacity="1"><g transform="translate(183.18237, 30.246713)"><g/></g></g><g fill="#50db14" fill-opacity="1"><g transform="translate(190.048125, 30.246713)"><g><path d="M 24.828125 0 L 20.1875 0 L 20.15625 -13.46875 L 15.1875 -2.078125 L 11.75 -2.078125 L 6.78125 -13.46875 L 6.78125 0 L 2.078125 0 L 2.078125 -20.75 L 7.84375 -20.75 L 13.46875 -8.40625 L 19.09375 -20.75 L 24.828125 -20.75 Z M 24.828125 0 "/></g></g></g><g fill="#50db14" fill-opacity="1"><g transform="translate(216.978451, 30.246713)"><g><path d="M 17.578125 -15.953125 L 17.578125 0 L 12.453125 0 L 12.453125 -2.640625 C 11.367188 -0.742188 9.644531 0.203125 7.28125 0.203125 C 5.539062 0.203125 4.148438 -0.347656 3.109375 -1.453125 C 2.078125 -2.554688 1.5625 -4.035156 1.5625 -5.890625 L 1.5625 -15.953125 L 6.6875 -15.953125 L 6.6875 -7.34375 C 6.6875 -6.394531 6.925781 -5.648438 7.40625 -5.109375 C 7.894531 -4.566406 8.546875 -4.296875 9.359375 -4.296875 C 10.316406 -4.316406 11.070312 -4.675781 11.625 -5.375 C 12.175781 -6.070312 12.453125 -6.972656 12.453125 -8.078125 L 12.453125 -15.953125 Z M 17.578125 -15.953125 "/></g></g></g><g fill="#50db14" fill-opacity="1"><g transform="translate(236.59912, 30.246713)"><g><path d="M 18.109375 -21.953125 L 18.109375 0 L 12.984375 0 L 12.984375 -2.09375 C 11.828125 -0.5625 10.234375 0.203125 8.203125 0.203125 C 5.953125 0.203125 4.144531 -0.550781 2.78125 -2.0625 C 1.414062 -3.582031 0.734375 -5.578125 0.734375 -8.046875 C 0.734375 -10.492188 1.40625 -12.457031 2.75 -13.9375 C 4.09375 -15.414062 5.867188 -16.15625 8.078125 -16.15625 C 10.191406 -16.15625 11.828125 -15.382812 12.984375 -13.84375 L 12.984375 -21.953125 Z M 6.859375 -4.90625 C 7.515625 -4.144531 8.375 -3.765625 9.4375 -3.765625 C 10.5 -3.765625 11.351562 -4.144531 12 -4.90625 C 12.65625 -5.675781 12.984375 -6.6875 12.984375 -7.9375 C 12.984375 -9.15625 12.65625 -10.148438 12 -10.921875 C 11.351562 -11.691406 10.5 -12.078125 9.4375 -12.078125 C 8.375 -12.078125 7.515625 -11.695312 6.859375 -10.9375 C 6.210938 -10.175781 5.878906 -9.175781 5.859375 -7.9375 C 5.878906 -6.6875 6.210938 -5.675781 6.859375 -4.90625 Z M 6.859375 -4.90625 "/></g></g></g><g fill="#50db14" fill-opacity="1"><g transform="translate(256.900425, 30.246713)"><g><path d="M 9.203125 -16.1875 C 11.390625 -16.1875 13.085938 -15.675781 14.296875 -14.65625 C 15.515625 -13.644531 16.132812 -12.234375 16.15625 -10.421875 L 16.15625 0 L 11.15625 0 L 11.15625 -1.828125 C 10.113281 -0.453125 8.488281 0.234375 6.28125 0.234375 C 4.601562 0.234375 3.269531 -0.226562 2.28125 -1.15625 C 1.289062 -2.082031 0.796875 -3.285156 0.796875 -4.765625 C 0.796875 -6.285156 1.320312 -7.460938 2.375 -8.296875 C 3.4375 -9.140625 4.953125 -9.570312 6.921875 -9.59375 L 11.125 -9.59375 L 11.125 -9.828125 C 11.125 -10.617188 10.863281 -11.234375 10.34375 -11.671875 C 9.820312 -12.117188 9.046875 -12.34375 8.015625 -12.34375 C 6.578125 -12.34375 4.988281 -11.898438 3.25 -11.015625 L 1.8125 -14.375 C 4.394531 -15.582031 6.859375 -16.1875 9.203125 -16.1875 Z M 7.84375 -3.21875 C 8.65625 -3.21875 9.363281 -3.421875 9.96875 -3.828125 C 10.582031 -4.234375 10.96875 -4.765625 11.125 -5.421875 L 11.125 -6.84375 L 7.90625 -6.84375 C 6.363281 -6.84375 5.59375 -6.269531 5.59375 -5.125 C 5.59375 -4.53125 5.789062 -4.0625 6.1875 -3.71875 C 6.582031 -3.382812 7.132812 -3.21875 7.84375 -3.21875 Z M 7.84375 -3.21875 "/></g></g></g><g fill="#50db14" fill-opacity="1"><g transform="translate(274.656671, 30.246713)"><g/></g></g><g fill="#50db14" fill-opacity="1"><g transform="translate(281.522426, 30.246713)"><g><path d="M 15.5625 0 L 10.09375 -8.140625 L 7.34375 -5.09375 L 7.34375 0 L 2.078125 0 L 2.078125 -20.71875 L 7.34375 -20.71875 L 7.34375 -11.75 L 15.265625 -20.71875 L 21.359375 -20.71875 L 13.671875 -12.140625 L 21.875 0 Z M 15.5625 0 "/></g></g></g><g fill="#50db14" fill-opacity="1"><g transform="translate(303.628955, 30.246713)"><g><path d="M 9.203125 -16.1875 C 11.390625 -16.1875 13.085938 -15.675781 14.296875 -14.65625 C 15.515625 -13.644531 16.132812 -12.234375 16.15625 -10.421875 L 16.15625 0 L 11.15625 0 L 11.15625 -1.828125 C 10.113281 -0.453125 8.488281 0.234375 6.28125 0.234375 C 4.601562 0.234375 3.269531 -0.226562 2.28125 -1.15625 C 1.289062 -2.082031 0.796875 -3.285156 0.796875 -4.765625 C 0.796875 -6.285156 1.320312 -7.460938 2.375 -8.296875 C 3.4375 -9.140625 4.953125 -9.570312 6.921875 -9.59375 L 11.125 -9.59375 L 11.125 -9.828125 C 11.125 -10.617188 10.863281 -11.234375 10.34375 -11.671875 C 9.820312 -12.117188 9.046875 -12.34375 8.015625 -12.34375 C 6.578125 -12.34375 4.988281 -11.898438 3.25 -11.015625 L 1.8125 -14.375 C 4.394531 -15.582031 6.859375 -16.1875 9.203125 -16.1875 Z M 7.84375 -3.21875 C 8.65625 -3.21875 9.363281 -3.421875 9.96875 -3.828125 C 10.582031 -4.234375 10.96875 -4.765625 11.125 -5.421875 L 11.125 -6.84375 L 7.90625 -6.84375 C 6.363281 -6.84375 5.59375 -6.269531 5.59375 -5.125 C 5.59375 -4.53125 5.789062 -4.0625 6.1875 -3.71875 C 6.582031 -3.382812 7.132812 -3.21875 7.84375 -3.21875 Z M 7.84375 -3.21875 "/></g></g></g><g fill="#50db14" fill-opacity="1"><g transform="translate(321.3852, 30.246713)"><g><path d="M 7.15625 -15.953125 L 7.15625 -13.265625 C 8.28125 -15.171875 10.007812 -16.144531 12.34375 -16.1875 L 12.34375 -11.578125 C 10.882812 -11.710938 9.691406 -11.46875 8.765625 -10.84375 C 7.835938 -10.21875 7.300781 -9.335938 7.15625 -8.203125 L 7.15625 0 L 2.046875 0 L 2.046875 -15.953125 Z M 7.15625 -15.953125 "/></g></g></g><g fill="#50db14" fill-opacity="1"><g transform="translate(334.021736, 30.246713)"><g><path d="M 17.375 -15.953125 L 10.46875 1.65625 C 9.289062 4.539062 7.242188 5.984375 4.328125 5.984375 C 2.628906 5.984375 1.078125 5.4375 -0.328125 4.34375 L 1.8125 0.859375 C 2.519531 1.429688 3.21875 1.71875 3.90625 1.71875 C 4.8125 1.71875 5.472656 1.289062 5.890625 0.4375 L 6.28125 -0.359375 L -0.359375 -15.953125 L 4.90625 -15.953125 L 8.8125 -5.359375 L 12.28125 -15.953125 Z M 17.375 -15.953125 "/></g></g></g><g fill="#50db14" fill-opacity="1"><g transform="translate(351.186111, 30.246713)"><g><path d="M 9.203125 -16.1875 C 11.390625 -16.1875 13.085938 -15.675781 14.296875 -14.65625 C 15.515625 -13.644531 16.132812 -12.234375 16.15625 -10.421875 L 16.15625 0 L 11.15625 0 L 11.15625 -1.828125 C 10.113281 -0.453125 8.488281 0.234375 6.28125 0.234375 C 4.601562 0.234375 3.269531 -0.226562 2.28125 -1.15625 C 1.289062 -2.082031 0.796875 -3.285156 0.796875 -4.765625 C 0.796875 -6.285156 1.320312 -7.460938 2.375 -8.296875 C 3.4375 -9.140625 4.953125 -9.570312 6.921875 -9.59375 L 11.125 -9.59375 L 11.125 -9.828125 C 11.125 -10.617188 10.863281 -11.234375 10.34375 -11.671875 C 9.820312 -12.117188 9.046875 -12.34375 8.015625 -12.34375 C 6.578125 -12.34375 4.988281 -11.898438 3.25 -11.015625 L 1.8125 -14.375 C 4.394531 -15.582031 6.859375 -16.1875 9.203125 -16.1875 Z M 7.84375 -3.21875 C 8.65625 -3.21875 9.363281 -3.421875 9.96875 -3.828125 C 10.582031 -4.234375 10.96875 -4.765625 11.125 -5.421875 L 11.125 -6.84375 L 7.90625 -6.84375 C 6.363281 -6.84375 5.59375 -6.269531 5.59375 -5.125 C 5.59375 -4.53125 5.789062 -4.0625 6.1875 -3.71875 C 6.582031 -3.382812 7.132812 -3.21875 7.84375 -3.21875 Z M 7.84375 -3.21875 "/></g></g></g></svg>