<?xml version="1.0" encoding="UTF-8" standalone="no"?>
<!DOCTYPE svg PUBLIC "-//W3C//DTD SVG 1.0//EN" "http://www.w3.org/TR/2001/REC-SVG-20010904/DTD/svg10.dtd">
<!-- Created with Inkscape (http://www.inkscape.org/) -->
<svg
   xmlns:svg="http://www.w3.org/2000/svg"
   xmlns="http://www.w3.org/2000/svg"
   version="1.0"
   width="800"
   height="580"
   id="svg2">
  <defs
     id="defs4" />
  <g
     id="layer1">
    <rect
       width="786.84528"
       height="570.73145"
       rx="0"
       ry="0"
       x="7.3959503"
       y="4.7122822"
       id="rect2396"
       style="opacity:1;fill:#000000;fill-opacity:1;fill-rule:nonzero;stroke:none;stroke-width:5;stroke-linecap:round;stroke-linejoin:round;stroke-miterlimit:4;stroke-dasharray:none;stroke-opacity:1" />
    <path
       d="M 7.4018293,211.28183 L 7.4018293,482.32887 L 154.28362,482.32887 L 154.28362,414.29007 L 308.31281,414.29007 L 308.31281,346.17741 L 154.28362,346.17741 L 154.28362,272.15475 L 305.87494,272.15475 L 305.87494,211.28183 L 154.28362,211.28183 L 8.5838279,211.28183 L 7.4018293,211.28183 z"
       id="rect3168"
       style="opacity:1;fill:#4eade3;fill-opacity:1;fill-rule:nonzero;stroke:none;stroke-width:5;stroke-linecap:round;stroke-linejoin:round;stroke-miterlimit:4;stroke-dasharray:none;stroke-opacity:1" />
    <rect
       width="153.42885"
       height="65.669937"
       x="311.56717"
       y="417.23886"
       id="rect3175"
       style="opacity:1;fill:#4eade3;fill-opacity:1;fill-rule:nonzero;stroke:none;stroke-width:5;stroke-linecap:round;stroke-linejoin:round;stroke-miterlimit:4;stroke-dasharray:none;stroke-opacity:1" />
    <path
       d="M 312.16416,342.61392 C 313.95515,341.41991 312.16416,276.34699 312.16416,276.34699 L 526.18845,276.34699 L 560.81441,379.32939 L 599.61938,276.34699 L 794.23915,276.34699 L 794.23915,482.90878 L 662.00583,482.90878 L 662.00583,342.31541 L 611.55936,482.90878 L 510.06947,482.90878 L 462.60802,342.61392 L 312.16416,342.61392 z"
       id="path3177"
       style="fill:#4eade3;fill-opacity:1;fill-rule:evenodd;stroke:none;stroke-width:1px;stroke-linecap:butt;stroke-linejoin:miter;stroke-opacity:1" />
  </g>
</svg>
