<?xml version="1.0" encoding="utf-8"?>
<!DOCTYPE svg PUBLIC "-//W3C//DTD SVG 1.1//EN" "http://www.w3.org/Graphics/SVG/1.1/DTD/svg11.dtd">
<svg version="1.1" id="Subaru_Logo" xmlns="http://www.w3.org/2000/svg" width="200" height="165" viewBox="0 0 200 165" xml:space="preserve">
  <title>Subaru Logo</title>
  <desc>For more information see: http://de.wikipedia.org/wiki/Datei:Subaru_Logo_alt.svg</desc>
  <rect id="Background" fill="#0c2577" width="190" height="155" x="5" y="5" />
  <path id="Letter_S" fill="#fff" d="M16.452,144.496v1.555c0-0.025,0,0,0,0c0,2.52,2.062,4.581,4.607,4.581h15.709
    c2.52,0,4.582-2.062,4.582-4.581v-3.26c-0.178-2.367-2.189-4.201-4.582-4.201l-13.061-0.332c-0.841-0.024-1.503-0.712-1.503-1.553
    v-0.229c0-0.84,0.688-1.527,1.529-1.527h10.336c0.865,0,1.553,0.688,1.553,1.527h5.346v-1.146c0-2.521-2.063-4.583-4.582-4.583
    H21.06c-2.546,0-4.607,2.062-4.607,4.583v0.024v2.851c0.203,2.395,2.189,4.203,4.582,4.203h0.026l13.087,0.33
    c0.814,0.025,1.477,0.713,1.477,1.527v0.611c0,0.865-0.688,1.554-1.527,1.554H23.734c-0.841,0-1.529-0.688-1.529-1.554v-0.383
    h-5.753V144.496z" />
  <path id="Letter_U_1" fill="#fff" d="M44.584,131.13v14.92c0-0.026,0,0,0,0c0,2.519,2.063,4.581,4.608,4.581H64.52
    c2.521,0,4.583-2.063,4.583-4.581v-14.92H66.25h-2.878v13.748c0,0.866-0.688,1.554-1.552,1.554h-9.955
    c-0.84,0-1.527-0.688-1.527-1.554V131.13h-2.877H44.584L44.584,131.13z" />
  <path id="Letter_B" fill="#fff" d="M83.487,138.59h5.346c0.84,0,1.527-0.688,1.527-1.528v-0.177c0-0.866-0.688-1.554-1.527-1.554
    H78.115v3.259H83.487L83.487,138.59z M83.766,142.408h-5.652v3.642h11.304c0.941,0,1.706-0.789,1.706-1.733v-0.203
    c0-0.941-0.764-1.705-1.706-1.705H83.766L83.766,142.408z M72.362,131.13h19.553c2.368,0.203,4.201,2.188,4.201,4.583
    c0.025,0.152,0.025,0.305,0.025,0.458c0,1.96-1.248,3.69-3.081,4.353c2.037,0.483,3.437,2.318,3.437,4.404v0.357
    c0,2.748-2.24,4.964-4.99,4.964H72.362V131.13L72.362,131.13z" />
  <path id="Letter_A" fill="#fff" d="M109.583,139.072l-1.731,3.133h6.925l-3.463-6.289L109.583,139.072L109.583,139.072z
     M107.471,131.13h7.865l10.109,19.12h-6.265l-2.087-3.818h-11.509l-2.089,3.818h-6.364L107.471,131.13L107.471,131.13z" />
  <path id="Letter_R" fill="#fff" d="M139.039,135.331h-5.168v4.964l10.337,0.025c1.273,0,2.317-1.043,2.317-2.291v-0.408
    c0-1.273-1.044-2.29-2.317-2.29H139.039L139.039,135.331z M128.118,131.13h19.17c2.749,0,4.966,2.215,4.966,4.964v1.35
    c0,0.103,0.024,0.203,0.024,0.305c0,2.089-1.324,3.922-3.259,4.66c1.731,0.637,3.004,2.189,3.232,4.023v3.818h-5.729v-3.438
    c0-1.273-1.044-2.317-2.317-2.317h-10.337v5.754h-5.753V131.13H128.118z" />
  <path id="Letter_U_2" fill="#fff" d="M155.613,131.13v14.92c0-0.026,0,0,0,0c0,2.519,2.063,4.581,4.583,4.581h0.024h15.301
    c2.545,0,4.609-2.063,4.609-4.581v-14.92h-5.755v13.748c0,0.866-0.688,1.554-1.526,1.554h-9.955c-0.84,0-1.527-0.688-1.527-1.527
    v-13.773L155.613,131.13L155.613,131.13z" />
  <path id="Registered" fill="#fff" d="M184.178,150.403l0.658,1.104h-0.554l-0.574-1.054h-0.407v1.046h-0.491v-2.571h0.937
    c0.646,0,0.996,0.259,0.996,0.737c0,0.232-0.041,0.416-0.242,0.617C184.389,150.396,184.178,150.403,184.178,150.403
    L184.178,150.403z M183.289,150.092h0.329c0.45,0,0.657-0.129,0.657-0.387c0-0.271-0.193-0.387-0.606-0.387h-0.382v0.773H183.289z
     M181.713,150.246c0,1.083,0.885,1.969,1.98,1.969c1.082,0,1.967-0.886,1.967-1.969c0-1.096-0.873-1.969-1.967-1.969
    C182.599,148.277,181.713,149.15,181.713,150.246L181.713,150.246z M186.104,150.246c0,1.316-1.082,2.387-2.41,2.387
    c-1.342,0-2.424-1.07-2.424-2.387c0-1.329,1.082-2.399,2.424-2.399C185.021,147.847,186.104,148.917,186.104,150.246
    L186.104,150.246z" />
  <ellipse id="Outer_Elipse" fill="#ffe812" cx="99.172" cy="66.926" rx="84.969" ry="50.09" />
  <ellipse id="Inner_Elipse" fill="#0c2577" cx="99.106" cy="66.93" rx="80.331" ry="45.519" />
  <path id="Big_star" fill="#ffe812" d="M41.243,53.278l-16.328,2.221c-0.262,0.131-0.393,0.262-0.393,0.522
    c0,0.26,0.131,0.522,0.393,0.522l32.523,4.441c1.698,0.262,3.266,1.568,3.788,3.265l5.748,19.464
    c0.131,0.261,0.393,0.521,0.653,0.521c0.26,0,0.522-0.131,0.653-0.521l5.747-19.463c0.522-1.697,1.96-3.003,3.657-3.134
    l32.655-4.572c0.262,0,0.393-0.262,0.393-0.522c0-0.261-0.131-0.392-0.393-0.522l-32.655-4.441
    c-1.697-0.262-3.135-1.567-3.657-3.134L68.15,28.199c0-0.262-0.262-0.522-0.522-0.522c-0.261,0-0.522,0.262-0.653,0.522
    l-5.878,19.724c-0.522,1.567-1.96,2.874-3.657,3.134L41.243,53.278L41.243,53.278z" />
  <path id="Small_star_1" fill="#ffe812" d="M73.767,96.645l7.184,1.305c1.044,0.131,1.829,0.915,2.09,1.828l2.22,8.623
    c0,0.131,0.131,0.26,0.524,0.26c0.262,0,0.262-0.129,0.262-0.391l2.218-8.492c0.262-0.914,1.044-1.697,2.09-1.828l14.369-2.481
    c0.129,0,0.26-0.13,0.26-0.261s-0.131-0.262-0.26-0.391l-14.369-2.352c-1.045-0.262-1.828-0.916-2.09-1.961l-2.218-8.49
    c0-0.261-0.262-0.393-0.262-0.393c-0.394,0-0.524,0.132-0.524,0.393l-2.22,8.49c-0.261,1.045-1.045,1.697-2.09,1.961l-14.369,2.352
    c-0.131,0.129-0.262,0.26-0.262,0.391s0.131,0.261,0.262,0.261L73.767,96.645L73.767,96.645z" />
  <path id="Small_star_2" fill="#ffe812" d="M116.74,90.373l-7.707,1.176c-0.131,0.131-0.26,0.262-0.26,0.393s0.129,0.26,0.26,0.26
    l15.283,2.613c1.045,0.261,1.828,1.046,2.221,1.961l2.484,8.882c0,0.261,0.131,0.522,0.521,0.522c0.131,0,0.26-0.262,0.391-0.522
    l2.35-8.882c0.262-0.915,1.177-1.699,2.092-1.961l15.283-2.613c0.26,0,0.391-0.129,0.391-0.26s-0.131-0.262-0.391-0.393
    l-15.283-2.481c-0.915-0.261-1.828-1.045-2.092-1.96l-2.35-9.013c-0.131-0.131-0.26-0.261-0.391-0.261
    c-0.391,0-0.391,0.131-0.521,0.261l-2.484,9.013c-0.391,0.915-1.176,1.699-2.221,1.96L116.74,90.373L116.74,90.373z" />
  <path id="Small_star_3" fill="#ffe812" d="M126.799,74.177l7.184-1.175c0.131-0.131,0.262-0.262,0.262-0.391
    c0-0.13-0.131-0.262-0.262-0.262l-14.368-2.481c-0.911-0.13-1.697-0.915-1.959-1.828l-2.221-8.491
    c-0.13-0.131-0.261-0.26-0.522-0.26c-0.131,0-0.262,0.13-0.391,0.26l-2.221,8.491c-0.262,0.915-1.045,1.698-2.091,1.828
    l-14.238,2.481c-0.261,0-0.261,0.131-0.261,0.262s0,0.261,0.261,0.391l14.238,2.352c1.046,0.261,1.828,0.915,2.091,1.96l2.221,8.491
    c0,0.261,0.26,0.392,0.391,0.392c0.262,0,0.393-0.131,0.522-0.392l2.221-8.491c0.261-1.044,1.048-1.699,1.959-1.96L126.799,74.177
    L126.799,74.177z" />
  <path id="Small_star_4" fill="#ffe812" d="M132.154,44.919l-7.186,1.175c-0.131,0-0.131,0.131-0.131,0.262s0,0.261,0.131,0.392
    l14.367,2.351c1.049,0.262,1.83,0.915,2.092,1.96l2.221,8.491c0,0.262,0.262,0.392,0.393,0.392c0.26,0,0.391-0.131,0.521-0.392
    l2.221-8.491c0.261-1.044,1.045-1.697,1.959-1.96l14.369-2.351c0.131-0.131,0.262-0.261,0.262-0.392s-0.131-0.262-0.262-0.262
    l-14.369-2.481c-0.914-0.131-1.697-0.914-1.959-1.828l-2.221-8.622c-0.131-0.131-0.262-0.26-0.521-0.26
    c-0.131,0-0.393,0.131-0.393,0.26l-2.221,8.622c-0.261,0.915-1.043,1.697-2.092,1.828L132.154,44.919L132.154,44.919z" />
  <path id="Small_star_5" fill="#ffe812" d="M145.871,71.173l-7.186,1.175c-0.131,0-0.262,0.131-0.262,0.262s0.131,0.261,0.262,0.391
    l14.368,2.352c1.046,0.261,1.828,0.915,2.091,1.96l2.221,8.491c0,0.261,0.131,0.392,0.391,0.392c0.262,0,0.392-0.131,0.392-0.392
    l2.352-8.491c0.262-1.044,1.179-1.699,1.96-1.96l14.369-2.352c0.129-0.131,0.26-0.262,0.26-0.391c0-0.13-0.131-0.262-0.26-0.262
    l-14.369-2.481c-0.781-0.13-1.828-0.915-1.96-1.828l-2.352-8.491c0-0.131-0.13-0.26-0.392-0.26c-0.131,0-0.391,0.13-0.391,0.26
    l-2.221,8.491c-0.262,0.915-1.045,1.698-2.091,1.828L145.871,71.173L145.871,71.173z" />
</svg>