<?xml version="1.0" encoding="UTF-8" standalone="no"?>
<svg
   xmlns:dc="http://purl.org/dc/elements/1.1/"
   xmlns:cc="http://creativecommons.org/ns#"
   xmlns:rdf="http://www.w3.org/1999/02/22-rdf-syntax-ns#"
   xmlns:svg="http://www.w3.org/2000/svg"
   xmlns="http://www.w3.org/2000/svg"
   xmlns:sodipodi="http://sodipodi.sourceforge.net/DTD/sodipodi-0.dtd"
   xmlns:inkscape="http://www.inkscape.org/namespaces/inkscape"
   viewBox="0 0 213.654 213.654"
   height="213.65401"
   width="213.65401"
   xml:space="preserve"
   id="svg2"
   version="1.1"
   sodipodi:docname="Volkswagen.svg"
   inkscape:version="0.92.2 5c3e80d, 2017-08-06"><sodipodi:namedview
     pagecolor="#ffffff"
     bordercolor="#666666"
     borderopacity="1"
     objecttolerance="10"
     gridtolerance="10"
     guidetolerance="10"
     inkscape:pageopacity="0"
     inkscape:pageshadow="2"
     inkscape:window-width="1680"
     inkscape:window-height="929"
     id="namedview10"
     showgrid="false"
     inkscape:zoom="0.91825937"
     inkscape:cx="128.504"
     inkscape:cy="128.504"
     inkscape:window-x="0"
     inkscape:window-y="1"
     inkscape:window-maximized="1"
     inkscape:current-layer="g12" /><metadata
     id="metadata8"><rdf:RDF><cc:Work
         rdf:about=""><dc:format>image/svg+xml</dc:format><dc:type
           rdf:resource="http://purl.org/dc/dcmitype/StillImage" /><dc:title></dc:title></cc:Work></rdf:RDF></metadata><defs
     id="defs6" /><g
     transform="matrix(1.3333333,0,0,-1.3333333,0,213.65399)"
     id="g10"><g
       transform="scale(0.1)"
       id="g12"><path
         id="path16"
         style="fill:#2058af;fill-opacity:1;fill-rule:evenodd;stroke:none"
         d="m 801.535,1602.406 c 441.141,0 800.871,-359.73 800.871,-801.53104 0,-440.48 -359.73,-800.875002041017 -800.871,-800.875002041017 C 360.395,-4.2041017e-5 0,360.39496 0,800.87496 0,1242.676 360.395,1602.406 801.535,1602.406"
         inkscape:connector-curvature="0" /><path
         id="path18"
         style="fill:#ffffff;fill-opacity:1;fill-rule:evenodd;stroke:none"
         d="m 801.535,1500.656 c 384.681,0 699.121,-314.44 699.121,-699.78104 0,-384.683 -314.44,-698.465 -699.121,-698.465 -384.683,0 -699.125,313.782 -699.125,698.465 0,385.34104 314.442,699.78104 699.125,699.78104 z m -468.054,-323.63 250.765,-650.54904 91.903,237.637 h 240.917 l 91.91,-237.637 253.39,658.42904 c -44.64,53.83 -98.47,99.78 -158.86,135.23 L 927.576,835.66796 h -78.12 -91.905 -78.117 L 502.848,1322.106 c -64.988,-37.42 -122.102,-86.66 -169.367,-145.08 z m 1029.985,-163.46 -285.56,-745.07404 c 191.68,100.438 323.63,301.313 323.63,532.383 0,74.841 -13.13,146.391 -38.07,212.69104 z m -410.29,-793.65204 -1.97,15.098 -154.925,401.75 -154.925,-401.75 -0.653,-12.473 c 51.2,-14.441 105.032,-21.664 160.832,-21.664 52.521,0 103.061,6.567 151.641,19.039 z m -439.824,55.145 -278.34,725.37704 c -22.32,-62.36004 -34.137,-129.32004 -34.137,-199.56104 0,-225.816 126.039,-424.066 312.477,-525.816 z M 801.535,1401.536 c 52.521,0 104.371,-6.57 153.611,-19.7 L 803.504,962.36596 651.203,1382.496 c 47.922,12.47 98.469,19.04 150.332,19.04"
         inkscape:connector-curvature="0" /></g></g></svg>